<svg width="64" height="64" viewBox="0 0 64 64" fill="none" xmlns="http://www.w3.org/2000/svg">
  <rect width="64" height="64" rx="32" fill="#ECFDF5"/>
  <path d="M32 50C30.3431 50 29 48.6569 29 47V38H35V47C35 48.6569 33.6569 50 32 50Z" fill="#10B981"/>
  <path d="M32 38C32 32 36 26 42 26C48 26 52 32 52 32C52 32 48 38 42 38C36 38 32 38 32 38Z" fill="#34D399"/>
  <path d="M32 38C32 32 28 26 22 26C16 26 12 32 12 32C12 32 16 38 22 38C28 38 32 38 32 38Z" fill="#10B981"/>
  <circle cx="48" cy="16" r="6" fill="#E854F7" fill-opacity="0.5"/>
</svg>